<?xml version="1.0" encoding="iso-8859-1"?>
<!-- Generator: Adobe Illustrator 19.0.0, SVG Export Plug-In . SVG Version: 6.00 Build 0)  -->
<svg version="1.1" id="Layer_1" xmlns="http://www.w3.org/2000/svg" xmlns:xlink="http://www.w3.org/1999/xlink" x="0px" y="0px"
	 viewBox="0 0 512 512" style="enable-background:new 0 0 512 512;" xml:space="preserve">
<path d="M94.68,0c-17.6,0-32,14.4-32,32v448c0,17.6,14.4,32,32,32h322.64c17.6,0,32-14.4,32-32V111.216L338.152,0H94.68z"/>
<polygon style="fill:#999999;" points="338.104,111.2 449.304,111.2 338.152,0 338.104,0 "/>
<g style="opacity:0.25;">
	<polygon style="fill:#FFFFFF;" points="62.68,388.576 62.68,310.56 152.792,310.56 	"/>
</g>
<g>
	<rect x="62.68" y="302.56" style="fill:#848484;" width="386.56" height="8"/>
	<rect x="62.68" y="435.52" style="fill:#848484;" width="386.56" height="8"/>
</g>
<g>
	<path style="fill:#FFFFFF;" d="M244.856,335.744v51.536c0,9.584-1.6,15.936-4.768,19.072s-9.632,4.704-19.36,4.704
		c-10.336,0-17.056-1.52-20.144-4.528c-3.088-3.024-4.624-9.664-4.624-19.856l0.16-5.52h13.52c0.224,2.768,0.336,4.848,0.336,6.224
		c0,1.312,0.048,2.912,0.16,4.768c0.224,4.512,3.808,6.784,10.784,6.784c4.16,0,6.832-0.816,8.016-2.432
		c1.168-1.632,1.76-5.264,1.76-10.96V335.76h14.16V335.744z"/>
	<path style="fill:#FFFFFF;" d="M313.384,357.536H299.56c-0.08-0.704-0.112-1.216-0.112-1.536c-0.336-4.208-1.264-6.832-2.8-7.904
		s-5.136-1.632-10.832-1.632c-6.704,0-11.088,0.624-13.136,1.872c-2.064,1.232-3.088,3.84-3.088,7.808
		c0,4.704,0.832,7.536,2.512,8.464c1.664,0.96,7.216,1.68,16.624,2.192c11.104,0.624,18.32,2.224,21.584,4.768
		c3.248,2.544,4.896,7.856,4.896,15.92c0,9.904-1.92,16.32-5.744,19.216c-3.824,2.896-12.272,4.336-25.312,4.336
		c-11.744,0-19.536-1.424-23.376-4.272c-3.856-2.848-5.776-8.608-5.776-17.28l-0.048-2.736h13.776l0.048,1.6
		c0,5.2,0.928,8.384,2.736,9.568c1.824,1.168,6.8,1.744,14.944,1.744c6.336,0,10.384-0.672,12.144-2.032
		c1.744-1.344,2.624-4.448,2.624-9.344c0-3.616-0.672-6-2-7.184s-4.208-1.904-8.608-2.16l-7.824-0.496
		c-11.808-0.688-19.36-2.336-22.64-4.928s-4.928-8.144-4.928-16.672c0-8.72,1.984-14.528,5.936-17.424
		c3.952-2.912,11.856-4.352,23.696-4.352c11.232,0,18.8,1.344,22.704,4c3.888,2.656,5.84,7.856,5.84,15.6v2.864H313.384z"/>
</g>
<g>
</g>
<g>
</g>
<g>
</g>
<g>
</g>
<g>
</g>
<g>
</g>
<g>
</g>
<g>
</g>
<g>
</g>
<g>
</g>
<g>
</g>
<g>
</g>
<g>
</g>
<g>
</g>
<g>
</g>
</svg>
